<?xml version="1.0" encoding="UTF-8" standalone="no"?>
<svg width="136px" height="41px" viewBox="0 0 136 41" version="1.1" xmlns="http://www.w3.org/2000/svg" xmlns:xlink="http://www.w3.org/1999/xlink">
    <!-- Generator: Sketch 39.1 (31720) - http://www.bohemiancoding.com/sketch -->
    <title>download-google-play</title>
    <desc>Created with Sketch.</desc>
    <defs></defs>
    <g id="Page-1" stroke="none" stroke-width="1" fill="none" fill-rule="evenodd">
        <g id="Mobile" transform="translate(-371.000000, -464.000000)">
            <g id="download-google-play" transform="translate(371.000000, 464.000000)">
                <g id="Page-1" transform="translate(0.773438, 0.945312)">
                    <g id="Group-29">
                        <path d="M130.0001,39.9999 L5.0001,39.9999 C2.2501,39.9999 0.0001,37.7499 0.0001,34.9999 L0.0001,4.9999 C0.0001,2.2499 2.2501,-0.0001 5.0001,-0.0001 L130.0001,-0.0001 C132.7501,-0.0001 135.0001,2.2499 135.0001,4.9999 L135.0001,34.9999 C135.0001,37.7499 132.7501,39.9999 130.0001,39.9999" id="Fill-3" fill="#000000"></path>
                        <path d="M130.0001,0.0001 L5.0001,0.0001 C2.2501,0.0001 0.0001,2.2501 0.0001,5.0001 L0.0001,35.0001 C0.0001,37.7501 2.2501,40.0001 5.0001,40.0001 L130.0001,40.0001 C132.7501,40.0001 135.0001,37.7501 135.0001,35.0001 L135.0001,5.0001 C135.0001,2.2501 132.7501,0.0001 130.0001,0.0001 M130.0001,0.8001 C132.3161,0.8001 134.2001,2.6841 134.2001,5.0001 L134.2001,35.0001 C134.2001,37.3161 132.3161,39.2001 130.0001,39.2001 L5.0001,39.2001 C2.6841,39.2001 0.8001,37.3161 0.8001,35.0001 L0.8001,5.0001 C0.8001,2.6841 2.6841,0.8001 5.0001,0.8001 L130.0001,0.8001" id="Fill-5" fill="#A6A6A6"></path>
                        <path d="M47.4185,10.2432 C47.4185,11.0812 47.1705,11.7482 46.6735,12.2462 C46.1085,12.8382 45.3735,13.1342 44.4695,13.1342 C43.6025,13.1342 42.8665,12.8342 42.2615,12.2332 C41.6545,11.6332 41.3525,10.8882 41.3525,10.0002 C41.3525,9.1112 41.6545,8.3672 42.2615,7.7662 C42.8665,7.1662 43.6025,6.8652 44.4695,6.8652 C44.8985,6.8652 45.3105,6.9492 45.7005,7.1172 C46.0915,7.2852 46.4045,7.5082 46.6395,7.7872 L46.1115,8.3152 C45.7145,7.8412 45.1675,7.6032 44.4695,7.6032 C43.8375,7.6032 43.2915,7.8252 42.8305,8.2692 C42.3695,8.7142 42.1395,9.2902 42.1395,10.0002 C42.1395,10.7092 42.3695,11.2862 42.8305,11.7302 C43.2915,12.1752 43.8375,12.3962 44.4695,12.3962 C45.1395,12.3962 45.6975,12.1732 46.1455,11.7262 C46.4355,11.4352 46.6025,11.0312 46.6475,10.5112 L44.4695,10.5112 L44.4695,9.7902 L47.3765,9.7902 C47.4045,9.9472 47.4185,10.0982 47.4185,10.2432" id="Fill-7" fill="#FFFFFF"></path>
                        <path d="M47.4185,10.2432 C47.4185,11.0812 47.1705,11.7482 46.6735,12.2462 C46.1085,12.8382 45.3735,13.1342 44.4695,13.1342 C43.6025,13.1342 42.8665,12.8342 42.2615,12.2332 C41.6545,11.6332 41.3525,10.8882 41.3525,10.0002 C41.3525,9.1112 41.6545,8.3672 42.2615,7.7662 C42.8665,7.1662 43.6025,6.8652 44.4695,6.8652 C44.8985,6.8652 45.3105,6.9492 45.7005,7.1172 C46.0915,7.2852 46.4045,7.5082 46.6395,7.7872 L46.1115,8.3152 C45.7145,7.8412 45.1675,7.6032 44.4695,7.6032 C43.8375,7.6032 43.2915,7.8252 42.8305,8.2692 C42.3695,8.7142 42.1395,9.2902 42.1395,10.0002 C42.1395,10.7092 42.3695,11.2862 42.8305,11.7302 C43.2915,12.1752 43.8375,12.3962 44.4695,12.3962 C45.1395,12.3962 45.6975,12.1732 46.1455,11.7262 C46.4355,11.4352 46.6025,11.0312 46.6475,10.5112 L44.4695,10.5112 L44.4695,9.7902 L47.3765,9.7902 C47.4045,9.9472 47.4185,10.0982 47.4185,10.2432 L47.4185,10.2432 Z" id="Stroke-9" stroke="#FFFFFF" stroke-width="0.2"></path>
                        <polygon id="Fill-11" fill="#FFFFFF" points="52.0278 7.7373 49.2958 7.7373 49.2958 9.6393 51.7598 9.6393 51.7598 10.3603 49.2958 10.3603 49.2958 12.2623 52.0278 12.2623 52.0278 13.0003 48.5248 13.0003 48.5248 7.0003 52.0278 7.0003"></polygon>
                        <polygon id="Stroke-13" stroke="#FFFFFF" stroke-width="0.2" points="52.0278 7.7373 49.2958 7.7373 49.2958 9.6393 51.7598 9.6393 51.7598 10.3603 49.2958 10.3603 49.2958 12.2623 52.0278 12.2623 52.0278 13.0003 48.5248 13.0003 48.5248 7.0003 52.0278 7.0003"></polygon>
                        <polygon id="Fill-15" fill="#FFFFFF" points="55.2788 13 54.5078 13 54.5078 7.737 52.8318 7.737 52.8318 7 56.9548 7 56.9548 7.737 55.2788 7.737"></polygon>
                        <polygon id="Stroke-17" stroke="#FFFFFF" stroke-width="0.2" points="55.2788 13 54.5078 13 54.5078 7.737 52.8318 7.737 52.8318 7 56.9548 7 56.9548 7.737 55.2788 7.737"></polygon>
                        <polygon id="Fill-19" fill="#FFFFFF" points="59.938 13 60.709 13 60.709 7 59.938 7"></polygon>
                        <polygon id="Stroke-21" stroke="#FFFFFF" stroke-width="0.2" points="59.938 13 60.709 13 60.709 7 59.938 7"></polygon>
                        <polygon id="Fill-22" fill="#FFFFFF" points="64.1284 13 63.3574 13 63.3574 7.737 61.6814 7.737 61.6814 7 65.8044 7 65.8044 7.737 64.1284 7.737"></polygon>
                        <polygon id="Stroke-23" stroke="#FFFFFF" stroke-width="0.2" points="64.1284 13 63.3574 13 63.3574 7.737 61.6814 7.737 61.6814 7 65.8044 7 65.8044 7.737 64.1284 7.737"></polygon>
                        <path d="M69.7793,11.7222 C70.2233,12.1722 70.7663,12.3962 71.4093,12.3962 C72.0523,12.3962 72.5953,12.1722 73.0393,11.7222 C73.4833,11.2722 73.7063,10.6982 73.7063,10.0002 C73.7063,9.3022 73.4833,8.7272 73.0393,8.2782 C72.5953,7.8282 72.0523,7.6032 71.4093,7.6032 C70.7663,7.6032 70.2233,7.8282 69.7793,8.2782 C69.3363,8.7272 69.1133,9.3022 69.1133,10.0002 C69.1133,10.6982 69.3363,11.2722 69.7793,11.7222 M73.6093,12.2242 C73.0193,12.8312 72.2863,13.1342 71.4093,13.1342 C70.5323,13.1342 69.7993,12.8312 69.2103,12.2242 C68.6203,11.6182 68.3263,10.8772 68.3263,10.0002 C68.3263,9.1232 68.6203,8.3812 69.2103,7.7752 C69.7993,7.1692 70.5323,6.8652 71.4093,6.8652 C72.2813,6.8652 73.0123,7.1702 73.6053,7.7792 C74.1973,8.3882 74.4933,9.1282 74.4933,10.0002 C74.4933,10.8772 74.1983,11.6182 73.6093,12.2242" id="Fill-24" fill="#FFFFFF"></path>
                        <path d="M69.7793,11.7222 C70.2233,12.1722 70.7663,12.3962 71.4093,12.3962 C72.0523,12.3962 72.5953,12.1722 73.0393,11.7222 C73.4833,11.2722 73.7063,10.6982 73.7063,10.0002 C73.7063,9.3022 73.4833,8.7272 73.0393,8.2782 C72.5953,7.8282 72.0523,7.6032 71.4093,7.6032 C70.7663,7.6032 70.2233,7.8282 69.7793,8.2782 C69.3363,8.7272 69.1133,9.3022 69.1133,10.0002 C69.1133,10.6982 69.3363,11.2722 69.7793,11.7222 L69.7793,11.7222 Z M73.6093,12.2242 C73.0193,12.8312 72.2863,13.1342 71.4093,13.1342 C70.5323,13.1342 69.7993,12.8312 69.2103,12.2242 C68.6203,11.6182 68.3263,10.8772 68.3263,10.0002 C68.3263,9.1232 68.6203,8.3812 69.2103,7.7752 C69.7993,7.1692 70.5323,6.8652 71.4093,6.8652 C72.2813,6.8652 73.0123,7.1702 73.6053,7.7792 C74.1973,8.3882 74.4933,9.1282 74.4933,10.0002 C74.4933,10.8772 74.1983,11.6182 73.6093,12.2242 L73.6093,12.2242 Z" id="Stroke-25" stroke="#FFFFFF" stroke-width="0.2"></path>
                        <polygon id="Fill-26" fill="#FFFFFF" points="75.5752 13 75.5752 7 76.5132 7 79.4292 11.667 79.4632 11.667 79.4292 10.511 79.4292 7 80.2012 7 80.2012 13 79.3962 13 76.3452 8.106 76.3122 8.106 76.3452 9.263 76.3452 13"></polygon>
                        <polygon id="Stroke-27" stroke="#FFFFFF" stroke-width="0.2" points="75.5752 13 75.5752 7 76.5132 7 79.4292 11.667 79.4632 11.667 79.4292 10.511 79.4292 7 80.2012 7 80.2012 13 79.3962 13 76.3452 8.106 76.3122 8.106 76.3452 9.263 76.3452 13"></polygon>
                        <path d="M106.936,30 L108.802,30 L108.802,17.499 L106.936,17.499 L106.936,30 Z M123.743,22.002 L121.604,27.422 L121.54,27.422 L119.32,22.002 L117.31,22.002 L120.639,29.577 L118.742,33.791 L120.687,33.791 L125.818,22.002 L123.743,22.002 Z M113.161,28.58 C112.549,28.58 111.697,28.275 111.697,27.518 C111.697,26.554 112.758,26.184 113.675,26.184 C114.495,26.184 114.882,26.361 115.38,26.602 C115.235,27.76 114.238,28.58 113.161,28.58 L113.161,28.58 Z M113.386,21.729 C112.035,21.729 110.635,22.324 110.057,23.643 L111.713,24.334 C112.067,23.643 112.726,23.417 113.418,23.417 C114.383,23.417 115.364,23.996 115.38,25.026 L115.38,25.154 C115.042,24.961 114.319,24.672 113.434,24.672 C111.649,24.672 109.831,25.653 109.831,27.486 C109.831,29.159 111.295,30.237 112.935,30.237 C114.19,30.237 114.882,29.674 115.316,29.014 L115.38,29.014 L115.38,29.979 L117.181,29.979 L117.181,25.186 C117.181,22.967 115.525,21.729 113.386,21.729 L113.386,21.729 Z M101.854,23.524 L99.2,23.524 L99.2,19.239 L101.854,19.239 C103.249,19.239 104.041,20.394 104.041,21.381 C104.041,22.35 103.249,23.524 101.854,23.524 L101.854,23.524 Z M101.806,17.499 L97.335,17.499 L97.335,30 L99.2,30 L99.2,25.264 L101.806,25.264 C103.874,25.264 105.907,23.766 105.907,21.381 C105.907,18.996 103.874,17.499 101.806,17.499 L101.806,17.499 Z M77.425,28.582 C76.136,28.582 75.057,27.503 75.057,26.021 C75.057,24.523 76.136,23.427 77.425,23.427 C78.698,23.427 79.696,24.523 79.696,26.021 C79.696,27.503 78.698,28.582 77.425,28.582 L77.425,28.582 Z M79.568,22.702 L79.503,22.702 C79.084,22.203 78.279,21.752 77.264,21.752 C75.137,21.752 73.188,23.62 73.188,26.021 C73.188,28.405 75.137,30.258 77.264,30.258 C78.279,30.258 79.084,29.807 79.503,29.291 L79.568,29.291 L79.568,29.904 C79.568,31.531 78.698,32.401 77.296,32.401 C76.152,32.401 75.443,31.579 75.153,30.886 L73.526,31.563 C73.993,32.691 75.234,34.076 77.296,34.076 C79.487,34.076 81.34,32.787 81.34,29.646 L81.34,22.009 L79.568,22.009 L79.568,22.702 Z M82.629,30 L84.498,30 L84.498,17.498 L82.629,17.498 L82.629,30 Z M87.252,25.876 C87.204,24.233 88.525,23.395 89.475,23.395 C90.217,23.395 90.845,23.765 91.054,24.297 L87.252,25.876 Z M93.052,24.458 C92.698,23.508 91.618,21.752 89.411,21.752 C87.22,21.752 85.4,23.475 85.4,26.005 C85.4,28.389 87.204,30.258 89.62,30.258 C91.57,30.258 92.698,29.066 93.165,28.373 L91.715,27.406 C91.232,28.115 90.571,28.582 89.62,28.582 C88.67,28.582 87.993,28.147 87.558,27.294 L93.245,24.941 L93.052,24.458 Z M47.744,23.057 L47.744,24.861 L52.061,24.861 C51.932,25.876 51.594,26.617 51.079,27.132 C50.45,27.761 49.467,28.454 47.744,28.454 C45.085,28.454 43.007,26.311 43.007,23.653 C43.007,20.994 45.085,18.852 47.744,18.852 C49.178,18.852 50.225,19.416 50.998,20.141 L52.271,18.868 C51.191,17.837 49.758,17.047 47.744,17.047 C44.103,17.047 41.042,20.012 41.042,23.653 C41.042,27.294 44.103,30.258 47.744,30.258 C49.709,30.258 51.191,29.613 52.351,28.405 C53.544,27.213 53.914,25.538 53.914,24.184 C53.914,23.765 53.882,23.379 53.817,23.057 L47.744,23.057 Z M58.823,28.582 C57.534,28.582 56.422,27.519 56.422,26.005 C56.422,24.474 57.534,23.427 58.823,23.427 C60.111,23.427 61.223,24.474 61.223,26.005 C61.223,27.519 60.111,28.582 58.823,28.582 L58.823,28.582 Z M58.823,21.752 C56.47,21.752 54.553,23.54 54.553,26.005 C54.553,28.454 56.47,30.258 58.823,30.258 C61.175,30.258 63.092,28.454 63.092,26.005 C63.092,23.54 61.175,21.752 58.823,21.752 L58.823,21.752 Z M68.136,28.582 C66.847,28.582 65.735,27.519 65.735,26.005 C65.735,24.474 66.847,23.427 68.136,23.427 C69.425,23.427 70.536,24.474 70.536,26.005 C70.536,27.519 69.425,28.582 68.136,28.582 L68.136,28.582 Z M68.136,21.752 C65.784,21.752 63.867,23.54 63.867,26.005 C63.867,28.454 65.784,30.258 68.136,30.258 C70.488,30.258 72.405,28.454 72.405,26.005 C72.405,23.54 70.488,21.752 68.136,21.752 L68.136,21.752 Z" id="Fill-28" fill="#FFFFFF"></path>
                    </g>
                    <path d="M10.435,7.538 C10.145,7.846 9.973,8.324 9.973,8.943 L9.973,8.943 L9.973,31.059 C9.973,31.679 10.145,32.156 10.435,32.464 L10.435,32.464 L10.509,32.536 L22.899,20.147 L22.899,20.001 L22.899,19.854 L10.509,7.465 L10.435,7.538 Z" id="Fill-30" fill="#00D2FF"></path>
                    <path d="M22.899,19.854 L22.899,20.001 L22.899,20.147 L27.028,24.279 L27.122,24.226 L32.015,21.446 C33.412,20.651 33.412,19.351 32.015,18.558 L32.015,18.558 L27.122,15.777 L27.029,15.724 L22.899,19.854 Z" id="Fill-32" fill="#FFD100"></path>
                    <path d="M10.435,32.464 C10.896,32.951 11.657,33.012 12.514,32.526 L12.514,32.526 L27.122,24.225 L22.899,20.001 L10.435,32.464 Z" id="Fill-34" fill="#F73446"></path>
                    <path d="M10.435,7.538 L22.899,20.001 L27.122,15.777 L12.514,7.477 C12.112,7.248 11.731,7.14 11.393,7.14 L11.393,7.14 C11.009,7.14 10.68,7.279 10.435,7.538" id="Fill-36" fill="#00F076"></path>
                    <g id="Group-46" transform="translate(9.000000, 7.000000)" fill="#000000">
                        <path d="M18.0288,17.1319 L3.5138,25.3789 C2.7018,25.8409 1.9758,25.8099 1.5098,25.3899 L1.4358,25.4649 L1.5098,25.5369 L1.5098,25.5359 C1.9758,25.9559 2.7018,25.9869 3.5138,25.5249 L18.1218,17.2249 L18.0288,17.1319 Z" id="Fill-38"></path>
                        <path d="M1.4354,25.3183 C1.1444,25.0103 0.9724,24.5323 0.9724,23.9133 L0.9724,24.0593 C0.9724,24.6783 1.1444,25.1563 1.4354,25.4643 L1.5104,25.3903 L1.4354,25.3183 Z" id="Fill-40"></path>
                        <path d="M23.0147,14.2987 L18.0287,17.1317 L18.1217,17.2247 L23.0147,14.4447 C23.7137,14.0477 24.0627,13.5247 24.0627,13.0017 C24.0037,13.4747 23.6487,13.9387 23.0147,14.2987" id="Fill-42"></path>
                    </g>
                </g>
            </g>
        </g>
    </g>
</svg>